<svg width="32" height="32" viewBox="0 0 32 32" fill="none" xmlns="http://www.w3.org/2000/svg">
<path d="M20.9115 -0.000488281H11.0885C2.12451 -0.000488281 -0.000488281 2.12451 -0.000488281 11.0885V20.9115C-0.000488281 29.8755 2.12451 32.0005 11.0885 32.0005H20.9115C29.8755 32.0005 32.0005 29.8755 32.0005 20.9115V11.0885C32.0005 2.12451 29.8545 -0.000488281 20.9115 -0.000488281ZM25.8335 22.8275H23.5105C22.6305 22.8275 22.3595 22.1295 20.7765 20.5255C19.4015 19.1925 18.7925 19.0155 18.4535 19.0155C17.9745 19.0155 17.8385 19.1505 17.8385 19.8075V21.9065C17.8385 22.4695 17.6615 22.8075 16.1715 22.8075C13.7075 22.8075 10.9735 21.3175 9.05651 18.5415C6.16551 14.4735 5.37451 11.4265 5.37451 10.7965C5.37451 10.4575 5.50951 10.1405 6.16051 10.1405H8.48851C9.07751 10.1405 9.30151 10.4115 9.53051 11.0415C10.6815 14.3645 12.5985 17.2755 13.3895 17.2755C13.6815 17.2755 13.8165 17.1405 13.8165 16.3955V12.9635C13.7275 11.3805 12.8945 11.2445 12.8945 10.6825C12.8945 10.4115 13.1185 10.1405 13.4775 10.1405H17.1385C17.6335 10.1405 17.8155 10.4115 17.8155 10.9945V15.6245C17.8155 16.1245 18.0395 16.3015 18.1745 16.3015C18.4665 16.3015 18.7165 16.1245 19.2575 15.5825C20.9295 13.7075 22.1275 10.8165 22.1275 10.8165C22.2835 10.4775 22.5545 10.1605 23.1435 10.1605H25.4715C26.1695 10.1605 26.3255 10.5195 26.1695 11.0195C25.8775 12.3735 23.0285 16.3945 23.0285 16.3945C22.7835 16.8005 22.6895 16.9775 23.0285 17.4305C23.2785 17.7695 24.0915 18.4725 24.6325 19.1025C25.6275 20.2325 26.3925 21.1805 26.5965 21.8365C26.8255 22.4875 26.4875 22.8265 25.8305 22.8265L25.8335 22.8275Z" fill="white"/>
</svg>
