<svg width="32" height="24" viewBox="0 0 32 24" fill="none" xmlns="http://www.w3.org/2000/svg">
<path d="M31.3272 4.2703C31.1414 3.60603 30.7872 3.001 30.2989 2.51379C29.8107 2.02657 29.2049 1.67369 28.5402 1.4893C26.0452 0.822298 16.0152 0.822298 16.0152 0.822298C16.0152 0.822298 6.0042 0.806297 3.4832 1.4893C2.8196 1.6745 2.21499 2.02775 1.72783 2.51492C1.24066 3.00209 0.887401 3.6067 0.702201 4.2703C0.2284 6.82452 -0.00495357 9.41752 0.0052004 12.0153C0.0005773 14.6006 0.233895 17.1808 0.702201 19.7233C0.888 20.3873 1.24136 20.9923 1.72836 21.4804C2.21536 21.9684 2.81965 22.3231 3.4832 22.5103C5.9782 23.1773 16.0152 23.1773 16.0152 23.1773C16.0152 23.1773 26.0202 23.1773 28.5402 22.5103C29.2048 22.3239 29.8103 21.9696 30.2984 21.4815C30.7865 20.9934 31.1408 20.3879 31.3272 19.7233C31.7862 17.1823 32.0102 14.5983 31.9942 12.0153C32.0102 9.4153 31.7912 6.8273 31.3272 4.2703ZM12.8112 16.8023V7.2073L21.1602 12.0153L12.8112 16.8023Z" fill="white"/>
</svg>
