<svg width="56" height="56" viewBox="0 0 56 56" fill="none" xmlns="http://www.w3.org/2000/svg">
<circle cx="28" cy="28" r="28" fill="#3E3E42"/>
<circle cx="28" cy="28" r="20" fill="white"/>
<path d="M11 28C11 18.6109 18.3854 11 27.5 11C36.6113 11 44 18.6109 44 28C44 37.3891 36.6113 45 27.5 45C18.3854 45 11 37.3891 11 28Z" fill="white"/>
<path d="M25.9273 28.4036C25.9273 27.6581 25.786 26.947 25.5398 26.2875C25.4746 28.4584 23.268 30.1393 21.9725 31.2516H25.2153C25.6685 30.4023 25.9273 29.4333 25.9273 28.4036ZM23.5831 23.6234C22.5564 22.824 21.2691 22.3433 19.867 22.3433C16.5199 22.3433 13.8064 25.0567 13.8064 28.4036C13.8064 31.7505 16.5199 34.4638 19.867 34.4638C21.3997 34.4638 22.7953 33.8904 23.8626 32.9519H19.4749L19.4615 31.6634C22.1053 29.3652 23.7259 27.8109 23.7259 26.3096C23.7259 25.7517 23.5134 25.0476 22.557 25.0476C21.7996 25.0476 21.0691 25.4863 21.2018 27.3194H19.661C19.2756 25.194 20.4314 23.5067 22.6364 23.5067C22.9783 23.5067 23.2945 23.5475 23.5831 23.6234Z" fill="#A3C626"/>
<path d="M31.5991 26.532H33.0325C33.0816 25.4417 32.7141 23.7139 30.3495 23.7139C28.6096 23.7139 27.3476 24.7556 27.3476 26.9241C27.3476 27.2182 27.3597 28.7374 27.3597 29.6808C27.3597 32.0334 28.9895 32.5479 30.3617 32.5479C31.1827 32.5479 32.3711 32.364 32.9223 31.7637V28.0145H30.2269V29.3746H31.4277V31.0286C30.5209 31.3349 28.8668 31.4575 28.8668 29.3746V26.9241C28.8668 25.4661 29.5408 24.9638 30.288 24.9638C31.0601 24.9638 31.5991 25.3559 31.5991 26.532ZM42.2619 30.1708C42.323 26.8139 38.4761 27.9287 38.5125 26.0542C38.5247 25.3927 38.9536 24.9638 39.6522 24.9638C40.3995 24.9638 40.8403 25.4049 40.8281 26.5567H42.2372C42.274 25.5151 42.029 23.7386 39.7012 23.7386C38.2554 23.7386 37.067 24.4494 37.0423 26.0298C36.9811 29.2518 40.8528 28.1983 40.7916 30.1464C40.767 30.9428 40.191 31.298 39.5418 31.298C38.7823 31.298 38.1696 30.8569 38.2922 29.5337H36.8706C36.7114 31.2859 37.4834 32.5357 39.5296 32.5357C41.2571 32.5357 42.2372 31.5798 42.2619 30.1708ZM35.7891 32.4252H34.3436V23.8488H35.7891V32.4252ZM35.7891 32.4252H34.3436V23.8488H35.7891V32.4252Z" fill="#434242"/>
</svg>
