<svg width="56" height="56" viewBox="0 0 56 56" fill="none" xmlns="http://www.w3.org/2000/svg">
<circle cx="28" cy="28" r="28" fill="#3E3E42"/>
<circle cx="28" cy="28" r="17.5" fill="white"/>
<path d="M24.23 34.7043C24.977 35.6426 25.7378 36.8225 26.1359 37.5352C26.6207 38.4617 26.8218 39.0872 27.1825 40.2077C27.3933 40.8214 27.5944 41.0075 28.0161 41.0075C28.4773 41.0075 28.6882 40.6947 28.8498 40.2077C29.1869 39.1565 29.447 38.3567 29.8589 37.5946C31.4475 34.5855 34.0372 32.4475 35.4957 29.5176C35.4957 29.5176 36.4555 27.728 36.4555 25.2217C36.4555 22.8857 35.5095 21.2624 35.5095 21.2624L24.236 34.7241L24.23 34.7043Z" fill="#34A853"/>
<path d="M20.4065 29.2008C21.3151 31.2795 23.0475 33.1007 24.23 34.7043L30.4975 27.241C30.4975 27.241 29.6126 28.405 28.0142 28.405C26.2325 28.405 24.7819 26.9796 24.7819 25.1782C24.7819 23.9389 25.517 23.0797 25.517 23.0797C20.9051 23.7686 21.1613 24.8911 20.3927 29.1969L20.4065 29.2008Z" fill="#FBBC04"/>
<path d="M30.5764 17.0793C32.6655 17.7544 34.4393 19.1778 35.5036 21.2564L30.4975 27.2548C30.4975 27.2548 31.2327 26.3917 31.2327 25.1564C31.2327 23.3173 29.6875 21.9295 28.0201 21.9295C26.4375 21.9295 25.5368 23.0797 25.5368 23.0797C25.9211 22.2007 29.8925 17.3783 30.5823 17.0813L30.5764 17.0793Z" fill="#4285F4"/>
<path d="M21.5496 19.7183C22.7952 18.2296 24.979 16.6894 27.9945 16.6894C29.451 16.6894 30.5566 17.0774 30.5566 17.0774L25.5308 23.0758C25.1918 22.8911 21.8847 20.3043 21.5496 19.7104V19.7183Z" fill="#1A73E8"/>
<path d="M20.4065 29.2008C20.4065 29.2008 19.5846 27.5617 19.5846 25.2019C19.5846 22.9649 20.4558 21.005 21.5555 19.738L25.5367 23.1035L20.4124 29.2008H20.4065Z" fill="#EA4335"/>
</svg>
