<svg width="215" height="44" viewBox="0 0 215 44" fill="none" xmlns="http://www.w3.org/2000/svg">
<path fill-rule="evenodd" clip-rule="evenodd" d="M32.3513 3.8127C30.0906 5.34774 27.9165 6.30042 24.9075 7.07474C22.722 7.63718 20.1649 8.02142 17.8483 8.13544L16.8219 8.18595V10.6213V13.0567L17.2344 13.1111C18.0069 13.2132 18.8016 13.9566 18.9583 14.7244L19.0137 14.9952H17.5574C16.7566 14.9952 16.0654 14.9652 16.0217 14.9286C15.9779 14.8919 15.7347 14.7827 15.4812 14.6859C15.2278 14.5891 14.7565 14.4079 14.4339 14.2831C13.6403 13.9761 10.9409 13.0943 10.3701 12.9555C10.1166 12.8939 9.45679 12.7265 8.90378 12.5835C8.35077 12.4405 7.65322 12.2871 7.35368 12.2426C7.05413 12.198 6.45085 12.1069 6.01305 12.04C5.57525 11.9732 4.83473 11.8929 4.36743 11.8616L3.51781 11.8046L3.46419 11.4021C3.41349 11.0223 3.39288 10.9951 3.09886 10.9199C2.64297 10.8033 1.23305 10.6373 1.17649 10.6936C1.14984 10.7201 1.22735 11.0095 1.34876 11.3366C1.58295 11.9676 1.57767 12.078 1.31323 12.078C0.800611 12.078 0.0981255 12.6043 0.0137498 13.0515C-0.0942545 13.6245 0.431184 13.9858 1.69037 14.2045C2.47413 14.3406 2.44774 14.3101 2.87791 15.5787C2.94788 15.785 3.03853 16.0288 3.07942 16.1205C3.12031 16.2121 3.29242 16.681 3.46184 17.1623C3.63126 17.6437 3.80127 18.1125 3.83965 18.2042C3.87802 18.2959 4.1402 19.0273 4.42215 19.8295C4.7041 20.6317 4.97004 21.3532 5.01311 21.4328C5.05618 21.5124 5.09137 21.6193 5.09137 21.6703C5.09137 21.7213 5.14432 21.8812 5.20901 22.0257C5.27369 22.1701 5.38488 22.4571 5.4561 22.6634C5.74694 23.5064 6.43376 25.4172 6.68429 26.0807C6.83151 26.4703 7.0212 26.9954 7.106 27.2476C7.19079 27.4997 7.38007 28.0248 7.52662 28.4145C7.89253 29.3873 8.50419 31.0821 8.75262 31.8109C8.86582 32.1433 8.99754 32.4152 9.0453 32.4152C9.09306 32.4152 9.40476 32.1433 9.7379 31.8109C10.163 31.3869 10.4277 31.0326 10.6255 30.6232C10.8763 30.1039 10.911 29.9458 10.9414 29.1854L10.9756 28.3311H14.62H18.2645L18.207 28.5603C18.125 28.8867 17.7838 29.3039 17.4033 29.5429C17.0602 29.7584 16.2445 30.0379 15.7117 30.1225C15.5388 30.1499 15.3974 30.2042 15.3974 30.2431C15.3974 30.3503 17.007 31.7509 18.2463 32.7221C18.5458 32.9568 18.8823 33.2464 18.994 33.3655L19.1972 33.5821L18.8683 33.592C17.8098 33.6241 17.543 33.5749 16.7719 33.2057C16.1392 32.9027 15.8692 32.7056 15.1816 32.0446C14.7261 31.6067 14.2939 31.2483 14.2211 31.2483C14.1484 31.2483 14.0192 31.299 13.9341 31.3609C13.807 31.4533 13.7887 31.5418 13.8316 31.8537C13.9806 32.9346 15.0022 35.1438 15.8643 36.2493C17.3365 38.137 18.9747 39.2057 21.2736 39.7782C22.0959 39.983 22.2984 40 23.9129 40C25.6125 40 26.0709 39.9528 27.1279 39.6694C28.3573 39.3397 29.5466 38.7941 30.6274 38.0641C31.5095 37.4684 31.6493 37.349 32.6481 36.338L33.5179 35.4575L34.5774 36.4993C36.3067 38.1998 37.839 39.0922 40.1153 39.7246C40.8502 39.9288 41.0629 39.9484 42.8881 39.9793C44.7953 40.0118 44.8958 40.0053 45.7369 39.7965C46.7863 39.536 46.9032 39.4935 47.8658 39.0231C48.9683 38.4843 49.7921 37.8321 50.8833 36.6343C51.0558 36.4451 51.5557 35.7938 51.6555 35.6283C51.9703 35.1067 52.7852 33.3701 52.9677 32.832C53.2846 31.898 53.3316 31.4991 53.1412 31.3607C52.8674 31.1615 52.7144 31.2368 52.0859 31.8802C51.4038 32.5787 50.5504 33.1843 49.9048 33.4283C49.5681 33.5555 49.3086 33.5829 48.6142 33.564L47.7449 33.5404L48.9365 32.563C49.5918 32.0254 50.2412 31.4886 50.3794 31.3701C51.25 30.6237 51.6782 30.2293 51.6782 30.1738C51.6782 30.1389 51.4313 30.065 51.1296 30.0097C50.1075 29.8224 49.2614 29.3266 48.9479 28.7312C48.6788 28.2203 48.4781 28.2478 52.4802 28.2478H56.1311L56.0748 28.6951C56.0055 29.2469 56.146 29.9678 56.4423 30.5815C56.7224 31.1616 57.9063 32.4173 58.0451 32.2815C58.1301 32.1982 58.285 31.7952 58.9389 29.9564C59.053 29.6355 59.2821 29.0167 59.448 28.5812C59.6139 28.1457 59.8347 27.5455 59.9387 27.2476C60.0427 26.9496 60.2644 26.3307 60.4314 25.8723C60.8567 24.7048 61.3845 23.2273 61.6223 22.5383C61.733 22.2175 61.8568 21.8799 61.8974 21.7882C61.938 21.6965 62.0347 21.434 62.1123 21.2048C62.1899 20.9755 62.2871 20.713 62.3284 20.6213C62.3697 20.5296 62.6274 19.817 62.9011 19.0377C63.408 17.5947 63.8068 16.4994 64.2062 15.4537C64.3287 15.1328 64.4674 14.7313 64.5146 14.5614C64.5945 14.273 64.626 14.2494 64.9889 14.204C65.649 14.1215 66.417 13.9005 66.6998 13.7116C66.9141 13.5685 66.9753 13.4642 66.9966 13.2062C67.0115 13.0274 66.9761 12.7929 66.9181 12.6851C66.7852 12.4381 66.3172 12.145 65.8808 12.0355C65.5915 11.9628 65.5484 11.9227 65.5679 11.7438C65.5803 11.6296 65.6422 11.4237 65.7053 11.2862C65.8888 10.886 65.9348 10.6786 65.8514 10.6272C65.7631 10.573 64.7572 10.6895 64.1046 10.8295L63.6694 10.923L63.575 11.3755L63.4805 11.828L62.7114 11.8296C61.922 11.8314 61.6892 11.8589 59.8922 12.1626C57.4783 12.5707 53.4556 13.7819 51.2848 14.7544C50.9841 14.8891 50.7252 14.9119 49.4938 14.9119H48.0543L48.1076 14.6468C48.1851 14.2612 48.5398 13.6991 48.8579 13.4578C49.1689 13.2217 49.7556 12.9949 50.0548 12.9949H50.2538V10.5815V8.1682L49.9814 8.12819C49.8316 8.10618 49.1058 8.04467 48.3685 7.9915C43.9871 7.67552 40.2634 6.73976 37.096 5.15862C36.091 4.65694 35.4681 4.28154 34.423 3.5479C33.9883 3.24268 33.6112 2.99613 33.5851 3.00005C33.5591 3.00396 33.0039 3.36962 32.3513 3.8127ZM34.4604 5.12112C35.3727 5.7194 36.996 6.56364 38.1043 7.01631C40.7239 8.0861 44.7344 8.94059 48.0124 9.12738L48.9969 9.18347V10.6233V12.0632L48.6157 12.2467C47.7924 12.6432 47.0188 13.6902 46.9227 14.5381L46.8804 14.9119H46.3885C46.118 14.9119 45.8967 14.8762 45.8967 14.8326C45.8967 14.5753 46.1165 13.7995 46.3113 13.3694C46.5549 12.8316 47.3189 11.946 47.7882 11.6574L48.0752 11.481V10.7866V10.0923L47.761 10.0421C47.5883 10.0145 47.1075 9.95687 46.6927 9.91386C41.993 9.42702 37.3741 8.00558 34.3876 6.12697C33.9794 5.87026 33.6179 5.66014 33.5843 5.66014C33.5507 5.66014 33.3095 5.81233 33.0483 5.99845C31.5251 7.08341 28.4525 8.34806 25.6965 9.02419C23.5234 9.55738 20.3949 10.0776 19.3618 10.0776H19.0004V10.821V11.5643L19.2874 11.7407C19.6397 11.9573 20.4618 12.8298 20.6442 13.1806C20.8812 13.6366 21.0951 14.3454 21.0951 14.6749V14.9952H20.6438H20.1925L20.1363 14.5993C20.0093 13.7034 19.2874 12.7233 18.4767 12.3458L18.0787 12.1605V10.7212V9.28191L19.6916 9.14038C22.0323 8.93501 25.0182 8.40141 26.5833 7.90881C29.1533 7.09991 31.3218 6.09855 32.8675 5.00684C33.1901 4.77897 33.4936 4.58893 33.5422 4.5846C33.5906 4.58018 34.0038 4.82164 34.4604 5.12112ZM64.6594 12.631C64.7549 12.7518 64.8331 12.8968 64.8331 12.9532C64.8331 13.1483 64.4866 13.495 64.2916 13.495C63.9994 13.495 63.7229 13.2316 63.7229 12.9532C63.7229 12.6748 63.9994 12.4114 64.2916 12.4114C64.4016 12.4114 64.5611 12.5067 64.6594 12.631ZM3.17855 12.6327C3.49016 12.9132 3.25228 13.5783 2.84037 13.5783C2.59336 13.5783 2.24254 13.2568 2.24254 13.0305C2.24254 12.5869 2.84381 12.3314 3.17855 12.6327ZM62.8669 14.9744C62.7508 15.7652 62.1442 17.3235 61.9485 17.3337C61.899 17.3363 61.5569 17.3463 61.1882 17.3559C60.4713 17.3748 59.777 17.6292 59.6954 17.903C59.6238 18.1433 58.7486 20.5871 58.2445 21.9549L57.7529 23.2885L57.711 25.2055L57.6691 27.1226H33.5378H9.40652L9.36428 25.2472L9.32197 23.3718L8.87864 22.1633C8.63481 21.4986 8.39501 20.8609 8.34574 20.7463C8.26874 20.5673 7.50257 18.3732 7.38208 17.9866C7.35904 17.9127 7.18375 17.7649 6.99255 17.6579C6.66778 17.4764 6.29073 17.4273 5.1145 17.4135C4.94072 17.4115 4.55571 16.5082 4.29688 15.4953C4.23245 15.2432 4.15276 14.947 4.11984 14.8371C4.06629 14.6586 4.08138 14.642 4.26144 14.6819C5.65393 14.9901 6.70791 15.259 7.85641 15.599C8.6168 15.8242 9.43928 16.0619 9.68403 16.1273C10.0653 16.229 13.4944 16.2431 33.5639 16.225L56.9988 16.2038L57.5434 16.0275C58.8607 15.6012 62.5185 14.6063 62.8526 14.5834C62.8924 14.5807 62.8988 14.7566 62.8669 14.9744ZM10.4539 21.6632V25.9973H33.4959H56.5379V21.6632V17.329H33.4959H10.4539V21.6632ZM13.1351 21.7049V23.7469H12.3441C11.5474 23.7469 11.3109 23.6651 11.6246 23.4981C11.7868 23.4118 11.7945 23.3302 11.7945 21.7049C11.7945 20.0795 11.7868 19.9979 11.6246 19.9116C11.3109 19.7446 11.5474 19.6628 12.3441 19.6628H13.1351V21.7049ZM14.5063 19.7777C14.8768 19.9317 15.1461 20.2888 15.1461 20.6261C15.1461 20.9774 14.82 21.3697 14.4184 21.5016L14.1151 21.6012L14.527 21.7959C15.7501 22.3741 15.2533 23.7469 13.8209 23.7469C13.5056 23.7469 13.3865 23.7151 13.3865 23.6309C13.3865 23.5671 13.4762 23.4925 13.586 23.4651C13.813 23.4084 13.8865 23.2097 13.8881 22.648C13.8896 22.1468 13.7795 21.8644 13.5605 21.8074C13.3647 21.7564 13.3203 21.4965 13.5074 21.4965C13.9812 21.4965 14.0233 20.059 13.5531 19.9368C13.4615 19.9129 13.3865 19.8415 13.3865 19.7781C13.3865 19.6231 14.1336 19.6229 14.5063 19.7777ZM18.2365 19.9754C18.2808 20.1473 18.4182 20.7192 18.5419 21.2464C18.9834 23.128 19.0759 23.4439 19.2069 23.5169C19.4846 23.6715 19.2107 23.7469 18.372 23.7469C17.484 23.7469 17.2557 23.668 17.5419 23.4598C17.6758 23.3623 17.681 23.3127 17.5889 23.0069C17.4874 22.67 17.4782 22.6634 17.1048 22.6634C16.6371 22.6634 16.6337 22.4684 17.1006 22.4292C17.3096 22.4116 17.4084 22.3623 17.4084 22.2758C17.4084 22.2057 17.2953 21.6614 17.157 21.0663C16.8079 19.5632 16.7813 19.6628 17.5308 19.6628H18.156L18.2365 19.9754ZM21.3465 21.5352C21.3465 23.331 21.3534 23.4113 21.5164 23.4981C21.841 23.6709 21.5828 23.7469 20.6712 23.7469C19.9435 23.7469 19.7545 23.723 19.7545 23.6308C19.7545 23.567 19.811 23.4931 19.8802 23.4667C19.9862 23.4263 20.0059 23.1515 20.0059 21.7049C20.0059 20.2582 19.9862 19.9834 19.8802 19.943C19.811 19.9166 19.7545 19.8428 19.7545 19.7789C19.7545 19.6878 19.926 19.6628 20.5505 19.6628H21.3465V21.5352ZM22.646 19.7828C22.9835 19.923 23.273 20.3488 23.273 20.7047C23.273 21.0491 23.0101 21.4467 22.697 21.5757C22.3689 21.7109 22.3655 21.8013 22.6861 21.8713C23.0726 21.9558 23.2736 22.2733 23.2736 22.7996C23.2736 23.2141 23.3593 23.3628 23.4831 23.1635C23.5692 23.025 23.6926 23.0697 23.6926 23.2394C23.6926 23.327 23.5765 23.4958 23.4348 23.6145C23.0887 23.9042 22.6243 23.9073 22.2837 23.6221C22.0553 23.4309 22.0325 23.3626 22.0028 22.7765C21.9751 22.23 21.9438 22.1214 21.7841 22.0159C21.5561 21.8653 21.5438 21.6915 21.7564 21.6243C21.9519 21.5627 22.0142 21.3458 22.0156 20.7215C22.0166 20.3123 21.9847 20.2087 21.8073 20.0452C21.6921 19.9389 21.5978 19.8095 21.5978 19.7574C21.5978 19.6215 22.299 19.6385 22.646 19.7828ZM25.6197 21.7049V23.7469H24.8237C24.1993 23.7469 24.0277 23.7219 24.0277 23.6308C24.0277 23.567 24.0843 23.4931 24.1534 23.4667C24.2595 23.4263 24.2791 23.1515 24.2791 21.7049C24.2791 20.2582 24.2595 19.9834 24.1534 19.943C24.0843 19.9166 24.0277 19.8428 24.0277 19.7789C24.0277 19.6878 24.1993 19.6628 24.8237 19.6628H25.6197V21.7049ZM26.9909 19.7777C27.3802 19.9395 27.6307 20.2869 27.6307 20.665C27.6307 21.0399 27.4537 21.2732 27.0084 21.4855L26.6794 21.6423L27.0503 21.806C27.5238 22.0147 27.6427 22.1631 27.6875 22.6009C27.7575 23.2866 27.2257 23.7469 26.3636 23.7469C26.0647 23.7469 25.9549 23.7148 25.9549 23.6275C25.9549 23.5618 26.0302 23.4843 26.1223 23.4553C26.3352 23.388 26.3891 23.1676 26.3573 22.4941C26.3354 22.0276 26.3065 21.9438 26.1434 21.8726C25.9614 21.7932 25.8741 21.4965 26.0327 21.4965C26.2526 21.4965 26.3738 21.2152 26.3738 20.7047C26.3738 20.2389 26.3485 20.1552 26.1644 20.0111C26.0491 19.9209 25.9549 19.8057 25.9549 19.755C25.9549 19.6239 26.6578 19.6393 26.9909 19.7777ZM29.893 21.7049V23.7469H29.1019C28.3053 23.7469 28.0687 23.6651 28.3824 23.4981C28.5446 23.4118 28.5524 23.3302 28.5524 21.7049C28.5524 20.0795 28.5446 19.9979 28.3824 19.9116C28.0687 19.7446 28.3053 19.6628 29.1019 19.6628H29.893V21.7049ZM31.3841 20.2254C31.3557 20.8693 31.2374 20.9524 30.9984 20.4963C30.9005 20.3095 30.7194 20.1454 30.4949 20.04C29.9479 19.7832 30.0378 19.6628 30.7766 19.6628H31.4088L31.3841 20.2254ZM33.6635 21.5407C33.6635 23.1332 33.6826 23.426 33.7892 23.4667C33.8583 23.4931 33.9149 23.567 33.9149 23.6308C33.9149 23.723 33.7258 23.7469 32.9981 23.7469C32.0865 23.7469 31.8283 23.6709 32.1529 23.4981C32.3152 23.4118 32.3229 23.3302 32.3229 21.7049C32.3229 20.0795 32.3152 19.9979 32.1529 19.9116C31.8392 19.7446 32.0758 19.6628 32.8724 19.6628H33.6635V21.5407ZM35.0055 19.8157C35.3202 19.9806 35.5905 20.4108 35.5902 20.7463C35.5899 21.0757 35.2986 21.4701 34.968 21.5891C34.6024 21.7206 34.5901 21.7934 34.9225 21.8595C35.0619 21.8872 35.2693 22.0027 35.3834 22.1162C35.554 22.286 35.5906 22.404 35.5906 22.7846C35.5906 23.2501 35.6416 23.3295 35.8238 23.1482C35.8784 23.094 35.9459 23.0724 35.974 23.1002C36.0794 23.2051 35.9012 23.5142 35.646 23.669C35.2588 23.9039 34.8913 23.8765 34.5676 23.5889C34.314 23.3635 34.2939 23.3054 34.2638 22.7117C34.2374 22.1939 34.2021 22.0603 34.0731 21.9917C33.8683 21.8826 33.8719 21.73 34.0824 21.5992C34.2286 21.5084 34.25 21.4048 34.25 20.7903C34.25 20.1707 34.2297 20.0746 34.0824 19.9962C33.9903 19.9471 33.9149 19.852 33.9149 19.7849C33.9149 19.6046 34.6417 19.6252 35.0055 19.8157ZM39.1936 21.5407C39.1936 23.1332 39.2127 23.426 39.3193 23.4667C39.3884 23.4931 39.4449 23.567 39.4449 23.6308C39.4449 23.723 39.2552 23.7469 38.5233 23.7469C37.7913 23.7469 37.6016 23.723 37.6016 23.6308C37.6016 23.567 37.6581 23.4931 37.7273 23.4667C37.8333 23.4263 37.853 23.155 37.853 21.7375C37.853 20.2702 37.8354 20.0435 37.7144 19.9555C37.4421 19.7574 37.6778 19.6628 38.4444 19.6628H39.1936V21.5407ZM40.4831 19.8963C41.3097 20.3778 41.3099 21.5032 40.4836 21.9744C39.9212 22.2951 39.0876 22.1754 39.6125 21.8492C39.7618 21.7565 39.7801 21.6548 39.7801 20.9225C39.7801 20.1708 39.7644 20.0895 39.5982 19.9798C39.1051 19.654 39.9333 19.5759 40.4831 19.8963ZM43.1317 19.7461C43.1317 19.792 43.0563 19.9045 42.9641 19.9962C42.8087 20.1508 42.7965 20.274 42.7965 21.6936C42.7965 23.0981 42.8103 23.2418 42.9641 23.4363C43.2889 23.8469 43.1504 23.9297 42.5742 23.6694C41.7998 23.3196 41.4005 22.5351 41.4746 21.5084C41.5341 20.6839 41.8722 20.1203 42.5033 19.7939C42.7874 19.6469 43.1317 19.6207 43.1317 19.7461ZM44.2481 19.9263C44.839 20.3116 45.2236 21.259 45.0985 22.0212C45.0108 22.5548 44.7296 23.1436 44.451 23.3768C44.1897 23.5956 43.6967 23.8303 43.4985 23.8303C43.3296 23.8303 43.3576 23.6389 43.5506 23.4745C43.7075 23.3409 43.7182 23.2286 43.7182 21.7186C43.7182 20.2112 43.7072 20.0955 43.5506 19.9545C43.4584 19.8716 43.383 19.7671 43.383 19.7223C43.383 19.589 43.9277 19.7174 44.2481 19.9263ZM47.4656 19.8016C47.4833 19.855 47.4204 19.9232 47.3257 19.9531C47.1594 20.0056 47.1535 20.0655 47.1535 21.7075C47.1535 23.3302 47.1613 23.4118 47.3235 23.4981C47.6442 23.6689 47.3939 23.7469 46.5251 23.7469C45.617 23.7469 45.4015 23.6657 45.7201 23.4438C45.8893 23.3258 45.8967 23.2538 45.8967 21.7103C45.8967 20.1501 45.891 20.0961 45.7148 19.9798C45.6053 19.9074 45.558 19.8193 45.5958 19.7585C45.6808 19.6216 47.4189 19.6617 47.4656 19.8016ZM49.6486 19.767C49.6957 19.8243 50.0774 20.4681 50.4967 21.1977L51.2592 22.5243V23.1355V23.7469H50.8584H50.4575L49.4564 22.0174C48.9058 21.0662 48.3481 20.1858 48.217 20.061C48.086 19.9362 48.0027 19.7956 48.0319 19.7485C48.1108 19.6215 49.5425 19.638 49.6486 19.767ZM51.639 19.7504C51.6689 19.7986 51.5957 19.9281 51.4763 20.0382C51.2713 20.2272 51.2592 20.2836 51.2592 21.0507C51.2592 21.692 51.2376 21.8417 51.1566 21.7611C51.1001 21.7049 51.0284 21.333 50.9972 20.9345C50.9462 20.2815 50.9179 20.1907 50.7093 20.0122C50.5233 19.853 50.5012 19.7997 50.5963 19.7398C50.7615 19.6358 51.5728 19.644 51.639 19.7504ZM52.8098 19.747C52.8386 19.7932 52.7838 19.9302 52.6881 20.0512C52.5923 20.1722 52.4909 20.415 52.4627 20.5906C52.4114 20.9095 52.2277 21.154 52.1198 21.0467C52.0435 20.9708 51.9811 19.9499 52.0429 19.7896C52.099 19.6442 52.7244 19.6094 52.8098 19.747ZM54.4432 21.5352C54.4432 23.331 54.4502 23.4113 54.6131 23.4981C54.9377 23.6709 54.6796 23.7469 53.768 23.7469C53.0402 23.7469 52.8512 23.723 52.8512 23.6308C52.8512 23.567 52.9078 23.4931 52.9769 23.4667C53.0835 23.426 53.1026 23.1332 53.1026 21.5407V19.6628H53.7729H54.4432V21.5352ZM55.4487 20.3713C55.4487 20.7609 55.4156 21.0797 55.3751 21.0797C55.2545 21.0797 55.1405 20.8891 55.0841 20.5935C55.055 20.4406 54.9554 20.2098 54.8628 20.0805C54.6144 19.7334 54.6497 19.6628 55.0716 19.6628H55.4487V20.3713ZM16.8219 20.9806C16.8219 21.1041 16.7087 21.5988 16.5705 22.0799C16.274 23.1117 16.2605 23.337 16.4867 23.4775C16.5789 23.5348 16.6543 23.6188 16.6543 23.6642C16.6543 23.7528 15.628 23.7817 15.5414 23.6956C15.513 23.6674 15.6128 23.5268 15.763 23.3831C16.0012 23.1552 16.0771 22.9647 16.3562 21.8942C16.6517 20.7613 16.8219 20.4274 16.8219 20.9806ZM30.8147 21.6166C30.8147 22.462 30.7213 22.668 30.5369 22.2291C30.4736 22.0783 30.3593 21.9034 30.283 21.8405C30.109 21.6969 30.1049 21.5294 30.2738 21.4649C30.345 21.4377 30.4586 21.2837 30.5263 21.1226C30.7315 20.6342 30.8147 20.7766 30.8147 21.6166ZM48.6648 22.177C48.7058 23.1723 48.7258 23.2794 48.8952 23.4158C48.9972 23.498 49.0807 23.6061 49.0807 23.6561C49.0807 23.7685 48.106 23.7805 48.0367 23.669C48.01 23.6261 48.0832 23.4965 48.1993 23.381C48.4044 23.177 48.4104 23.1386 48.4104 22.0253C48.4104 21.109 48.4313 20.9005 48.5151 20.9836C48.583 21.051 48.6357 21.4708 48.6648 22.177ZM31.4012 23.1684V23.7469H30.7728C30.0393 23.7469 29.9557 23.6305 30.5035 23.3718C30.7475 23.2567 30.9169 23.0955 31.0518 22.8502C31.1592 22.6549 31.2817 22.5164 31.3241 22.5425C31.3665 22.5685 31.4012 22.8502 31.4012 23.1684ZM47.2834 28.477C47.4629 29.3114 47.9583 29.9998 48.6702 30.4043L49.0749 30.6342L48.5123 31.1115C48.2028 31.3739 47.547 31.9083 47.055 32.299L46.1606 33.0091L45.404 32.5247C44.9879 32.2582 44.165 31.7164 43.5753 31.3207C42.9857 30.9249 42.2959 30.4899 42.0424 30.3541C41.7889 30.2181 41.3365 29.9756 41.0369 29.8151C39.7407 29.1204 38.3315 28.7893 36.9732 28.8602C35.6621 28.9287 34.933 29.1633 33.9595 29.8295C33.7571 29.9681 33.5718 30.0814 33.5479 30.0814C33.5239 30.0814 33.3375 29.9695 33.1337 29.8327C32.9298 29.6958 32.434 29.4267 32.0317 29.2347L31.3002 28.8856L30.0311 28.8836C28.728 28.8815 28.2375 28.9566 27.2066 29.3165C26.3159 29.6273 24.6387 30.557 23.1019 31.5917C22.2516 32.1642 21.3991 32.7199 21.2075 32.8266L20.859 33.0208L20.5057 32.7389C20.3114 32.5838 19.9969 32.3243 19.8069 32.1623C19.4932 31.8949 18.3937 31.0107 18.0868 30.7791C17.9831 30.7008 18.0194 30.6559 18.3025 30.5122C19.0474 30.1342 19.5061 29.5762 19.703 28.8086L19.8149 28.3728L20.3713 28.3481C20.6772 28.3346 20.9269 28.3534 20.9263 28.3898C20.9256 28.4263 20.868 28.6967 20.7984 28.9907C20.646 29.6339 20.3111 30.2716 19.9804 30.5484C19.8426 30.6636 19.7574 30.8022 19.7831 30.8689C19.864 31.0787 21.3514 32.2552 21.4564 32.1925C21.5112 32.1598 22.2158 31.6988 23.0223 31.1682C23.8287 30.6376 24.7525 30.0505 25.0751 29.8637C28.1998 28.0545 30.9801 27.8675 33.1078 29.3237C33.3148 29.4654 33.505 29.5814 33.5305 29.5814C33.5559 29.5814 33.822 29.4321 34.1217 29.2495C35.0867 28.6621 35.7214 28.4529 36.8022 28.3664C38.8568 28.2019 40.8087 28.9749 44.3697 31.363C45.0275 31.8042 45.5992 32.1652 45.6399 32.1652C45.731 32.1652 46.3808 31.656 46.9441 31.1433L47.363 30.7619L47.0564 30.4425C46.6461 30.0153 46.4191 29.5886 46.2723 28.9698C46.0942 28.2184 46.0772 28.2478 46.6911 28.2478C47.2157 28.2478 47.2358 28.2555 47.2834 28.477Z" fill="white"/>
<path d="M76 21.8137V8.18631H81.5894C82.6165 8.18631 83.473 8.33492 84.1592 8.63213C84.8454 8.92934 85.3612 9.34189 85.7066 9.86977C86.0519 10.3932 86.2246 10.9965 86.2246 11.6797C86.2246 12.212 86.1155 12.68 85.8974 13.0837C85.6793 13.4829 85.3794 13.8112 84.9976 14.0684C84.6205 14.3213 84.1888 14.5009 83.7025 14.6074V14.7405C84.2342 14.7627 84.7318 14.9091 85.1953 15.1797C85.6634 15.4503 86.0428 15.8295 86.3337 16.3175C86.6245 16.801 86.7699 17.3777 86.7699 18.0475C86.7699 18.7706 86.5859 19.416 86.2178 19.9838C85.8542 20.5472 85.3157 20.993 84.6023 21.3213C83.8888 21.6496 83.0095 21.8137 81.9643 21.8137H76ZM78.9515 19.4582H81.3577C82.1802 19.4582 82.78 19.3051 83.1572 18.999C83.5344 18.6885 83.723 18.276 83.723 17.7614C83.723 17.3843 83.6298 17.0516 83.4435 16.7633C83.2572 16.475 82.9914 16.2487 82.646 16.0846C82.3052 15.9205 81.8985 15.8384 81.4259 15.8384H78.9515V19.4582ZM78.9515 13.8888H81.1396C81.544 13.8888 81.903 13.82 82.2166 13.6825C82.5347 13.5406 82.7846 13.3409 82.9664 13.0837C83.1527 12.8264 83.2458 12.5181 83.2458 12.1587C83.2458 11.6663 83.0663 11.2693 82.7073 10.9677C82.3529 10.666 81.8485 10.5152 81.1941 10.5152H78.9515V13.8888Z" fill="white"/>
<path d="M91.0966 21.8137H87.9338L92.753 8.18631H96.5566L101.369 21.8137H98.2061L94.7093 11.3004H94.6002L91.0966 21.8137ZM90.8989 16.4572H98.3697V18.7063H90.8989V16.4572Z" fill="white"/>
<path d="M103.049 21.8137V8.18631H108.557C109.611 8.18631 110.511 8.37041 111.256 8.73859C112.006 9.10234 112.576 9.61914 112.967 10.289C113.362 10.9544 113.56 11.7373 113.56 12.6378C113.56 13.5428 113.36 14.3213 112.96 14.9734C112.56 15.621 111.981 16.1179 111.222 16.4639C110.468 16.8099 109.554 16.9829 108.482 16.9829H104.794V14.6673H108.005C108.568 14.6673 109.036 14.5919 109.409 14.4411C109.782 14.2902 110.059 14.064 110.24 13.7624C110.427 13.4607 110.52 13.0859 110.52 12.6378C110.52 12.1854 110.427 11.8039 110.24 11.4933C110.059 11.1828 109.779 10.9477 109.402 10.788C109.029 10.6239 108.559 10.5418 107.991 10.5418H106.001V21.8137H103.049ZM110.588 15.6122L114.058 21.8137H110.799L107.405 15.6122H110.588Z" fill="white"/>
<path d="M115.646 21.8137V8.18631H121.235C122.262 8.18631 123.119 8.33492 123.805 8.63213C124.491 8.92934 125.007 9.34189 125.352 9.86977C125.698 10.3932 125.87 10.9965 125.87 11.6797C125.87 12.212 125.761 12.68 125.543 13.0837C125.325 13.4829 125.025 13.8112 124.644 14.0684C124.266 14.3213 123.835 14.5009 123.348 14.6074V14.7405C123.88 14.7627 124.378 14.9091 124.841 15.1797C125.309 15.4503 125.689 15.8295 125.98 16.3175C126.27 16.801 126.416 17.3777 126.416 18.0475C126.416 18.7706 126.232 19.416 125.864 19.9838C125.5 20.5472 124.962 20.993 124.248 21.3213C123.535 21.6496 122.655 21.8137 121.61 21.8137H115.646ZM118.597 19.4582H121.004C121.826 19.4582 122.426 19.3051 122.803 18.999C123.18 18.6885 123.369 18.276 123.369 17.7614C123.369 17.3843 123.276 17.0516 123.089 16.7633C122.903 16.475 122.637 16.2487 122.292 16.0846C121.951 15.9205 121.544 15.8384 121.072 15.8384H118.597V19.4582ZM118.597 13.8888H120.785C121.19 13.8888 121.549 13.82 121.862 13.6825C122.181 13.5406 122.43 13.3409 122.612 13.0837C122.799 12.8264 122.892 12.5181 122.892 12.1587C122.892 11.6663 122.712 11.2693 122.353 10.9677C121.999 10.666 121.494 10.5152 120.84 10.5152H118.597V13.8888Z" fill="white"/>
<path d="M128.336 21.8137V8.18631H137.743V10.5618H131.288V13.8089H137.259V16.1844H131.288V19.4382H137.77V21.8137H128.336Z" fill="white"/>
<path d="M140.089 21.8137V8.18631H145.597C146.651 8.18631 147.551 8.37041 148.296 8.73859C149.046 9.10234 149.617 9.61914 150.007 10.289C150.403 10.9544 150.6 11.7373 150.6 12.6378C150.6 13.5428 150.4 14.3213 150.001 14.9734C149.601 15.621 149.021 16.1179 148.262 16.4639C147.508 16.8099 146.595 16.9829 145.522 16.9829H141.834V14.6673H145.045C145.608 14.6673 146.077 14.5919 146.449 14.4411C146.822 14.2902 147.099 14.064 147.281 13.7624C147.467 13.4607 147.56 13.0859 147.56 12.6378C147.56 12.1854 147.467 11.8039 147.281 11.4933C147.099 11.1828 146.82 10.9477 146.442 10.788C146.07 10.6239 145.599 10.5418 145.031 10.5418H143.041V21.8137H140.089ZM147.628 15.6122L151.098 21.8137H147.84L144.445 15.6122H147.628Z" fill="white"/>
<path d="M157.129 21.8137V8.18631H162.636C163.695 8.18631 164.597 8.38371 165.343 8.77852C166.088 9.16888 166.656 9.71229 167.047 10.4087C167.442 11.1008 167.64 11.8992 167.64 12.8042C167.64 13.7091 167.44 14.5076 167.04 15.1996C166.64 15.8916 166.061 16.4306 165.302 16.8165C164.547 17.2025 163.634 17.3954 162.561 17.3954H159.051V15.0865H162.084C162.652 15.0865 163.12 14.9911 163.488 14.8004C163.861 14.6052 164.138 14.3368 164.32 13.9952C164.506 13.6492 164.6 13.2522 164.6 12.8042C164.6 12.3517 164.506 11.9569 164.32 11.6198C164.138 11.2782 163.861 11.0143 163.488 10.8279C163.116 10.6372 162.643 10.5418 162.071 10.5418H160.08V21.8137H157.129Z" fill="white"/>
<path d="M182.385 15C182.385 16.4861 182.097 17.7503 181.52 18.7928C180.947 19.8352 180.165 20.6315 179.175 21.1816C178.189 21.7272 177.08 22 175.848 22C174.608 22 173.494 21.725 172.508 21.1749C171.522 20.6248 170.743 19.8286 170.17 18.7861C169.598 17.7437 169.311 16.4816 169.311 15C169.311 13.5139 169.598 12.2497 170.17 11.2072C170.743 10.1648 171.522 9.37072 172.508 8.8251C173.494 8.27503 174.608 8 175.848 8C177.08 8 178.189 8.27503 179.175 8.8251C180.165 9.37072 180.947 10.1648 181.52 11.2072C182.097 12.2497 182.385 13.5139 182.385 15ZM179.393 15C179.393 14.0374 179.245 13.2256 178.95 12.5646C178.659 11.9037 178.248 11.4024 177.716 11.0608C177.184 10.7193 176.562 10.5485 175.848 10.5485C175.135 10.5485 174.512 10.7193 173.981 11.0608C173.449 11.4024 173.035 11.9037 172.74 12.5646C172.449 13.2256 172.304 14.0374 172.304 15C172.304 15.9626 172.449 16.7744 172.74 17.4354C173.035 18.0963 173.449 18.5976 173.981 18.9392C174.512 19.2807 175.135 19.4515 175.848 19.4515C176.562 19.4515 177.184 19.2807 177.716 18.9392C178.248 18.5976 178.659 18.0963 178.95 17.4354C179.245 16.7744 179.393 15.9626 179.393 15Z" fill="white"/>
<path d="M187.523 8.18631V21.8137H184.572V8.18631H187.523Z" fill="white"/>
<path d="M201.628 8.18631V21.8137H199.079L193.005 13.2367H192.903V21.8137H189.951V8.18631H192.542L198.567 16.7567H198.69V8.18631H201.628Z" fill="white"/>
<path d="M203.535 10.5618V8.18631H215V10.5618H210.726V21.8137H207.809V10.5618H203.535Z" fill="white"/>
<path d="M76 32.83C76 32.2878 76.0896 31.7581 76.2689 31.2409C76.4563 30.7153 76.7253 30.2398 77.0757 29.8144C77.4261 29.3806 77.858 29.0386 78.3714 28.7883C78.8847 28.5297 79.4674 28.4004 80.1193 28.4004C80.8935 28.4004 81.5535 28.5839 82.0995 28.951C82.6537 29.3097 83.0611 29.7727 83.3219 30.3399L82.6496 30.7654C82.4622 30.3733 82.2258 30.0647 81.9406 29.8394C81.6554 29.6058 81.3498 29.439 81.0239 29.3389C80.7061 29.2388 80.3882 29.1887 80.0704 29.1887C79.5489 29.1887 79.0885 29.2972 78.6892 29.5141C78.2899 29.7226 77.9517 30.0063 77.6746 30.365C77.4057 30.7153 77.202 31.1116 77.0634 31.5537C76.9249 31.9875 76.8556 32.4296 76.8556 32.8801C76.8556 33.3723 76.9371 33.8436 77.1001 34.2941C77.2631 34.7445 77.4913 35.1449 77.7846 35.4953C78.078 35.8373 78.4203 36.1126 78.8114 36.3212C79.2107 36.5214 79.6426 36.6215 80.1071 36.6215C80.4331 36.6215 80.7672 36.5631 81.1094 36.4463C81.4517 36.3295 81.7695 36.1502 82.0629 35.9082C82.3644 35.6663 82.6048 35.3535 82.784 34.9698L83.493 35.3452C83.3137 35.7873 83.0367 36.1627 82.6618 36.4713C82.287 36.78 81.8673 37.0136 81.4028 37.1721C80.9464 37.3306 80.4983 37.4098 80.0582 37.4098C79.4633 37.4098 78.9173 37.2805 78.4203 37.0219C77.9232 36.755 77.4913 36.4046 77.1246 35.9708C76.766 35.5287 76.4889 35.0365 76.2934 34.4943C76.0978 33.9437 76 33.3889 76 32.83Z" fill="white"/>
<path d="M87.5335 37.4599C87.0771 37.4599 86.6534 37.3723 86.2622 37.1971C85.8711 37.0136 85.5329 36.7675 85.2477 36.4588C84.9624 36.1418 84.7383 35.7789 84.5754 35.3702C84.4205 34.9614 84.3431 34.5235 84.3431 34.0563C84.3431 33.4473 84.4776 32.8884 84.7465 32.3796C85.0236 31.8707 85.4025 31.4661 85.8833 31.1658C86.3641 30.8571 86.9101 30.7028 87.5212 30.7028C88.1487 30.7028 88.6947 30.8571 89.1592 31.1658C89.6318 31.4745 90.0026 31.8832 90.2715 32.3921C90.5404 32.8926 90.6749 33.4432 90.6749 34.0438C90.6749 34.1105 90.6749 34.1773 90.6749 34.244C90.6749 34.3024 90.6708 34.3483 90.6627 34.3816H85.211C85.2517 34.8488 85.378 35.2659 85.5899 35.633C85.8099 35.9917 86.0911 36.2795 86.4333 36.4964C86.7837 36.7049 87.1627 36.8092 87.5701 36.8092C87.9857 36.8092 88.3769 36.7007 88.7436 36.4838C89.1184 36.2669 89.3792 35.9833 89.5259 35.633L90.2471 35.8332C90.1167 36.1418 89.917 36.4213 89.6481 36.6715C89.3792 36.9218 89.0614 37.1178 88.6947 37.2596C88.3361 37.3931 87.9491 37.4599 87.5335 37.4599ZM85.1865 33.7685H89.8926C89.86 33.293 89.7337 32.8759 89.5137 32.5172C89.3018 32.1585 89.0206 31.879 88.6702 31.6788C88.328 31.4703 87.9491 31.366 87.5335 31.366C87.1179 31.366 86.7389 31.4703 86.3967 31.6788C86.0544 31.879 85.7733 32.1627 85.5532 32.5297C85.3414 32.8884 85.2191 33.3014 85.1865 33.7685Z" fill="white"/>
<path d="M93.5464 37.3347V31.5787H91.2728V30.8154H96.6511V31.5787H94.3776V37.3347H93.5464Z" fill="white"/>
<path d="M97.7704 37.3347V30.8154H98.6016V33.1178H100.252C100.977 33.1178 101.523 33.3097 101.89 33.6934C102.265 34.0688 102.452 34.5652 102.452 35.1825C102.452 35.5829 102.37 35.9458 102.207 36.2711C102.045 36.5965 101.804 36.8551 101.486 37.0469C101.177 37.2388 100.785 37.3347 100.313 37.3347H97.7704ZM98.6016 36.659H100.203C100.537 36.659 100.806 36.5923 101.01 36.4588C101.213 36.317 101.364 36.1376 101.462 35.9208C101.56 35.6955 101.609 35.4536 101.609 35.195C101.609 34.9447 101.564 34.7153 101.474 34.5068C101.393 34.2899 101.246 34.1189 101.034 33.9937C100.83 33.8603 100.545 33.7935 100.178 33.7935H98.6016V36.659Z" fill="white"/>
<path d="M109.788 37.4599C108.761 37.4599 107.983 37.1387 107.453 36.4964C106.932 35.8457 106.671 34.9489 106.671 33.806C106.671 32.9969 106.736 32.3128 106.867 31.7539C106.997 31.195 107.189 30.7362 107.441 30.3775C107.694 30.0104 108.003 29.7101 108.37 29.4765C108.745 29.243 109.173 29.0511 109.654 28.9009L112.331 28L112.404 28.7383L109.825 29.6017C109.336 29.7685 108.928 29.9812 108.602 30.2398C108.276 30.4984 108.02 30.8279 107.832 31.2284C107.653 31.6204 107.535 32.1335 107.478 32.7675C107.69 32.2836 108.016 31.9124 108.456 31.6538C108.896 31.3869 109.405 31.2534 109.984 31.2534C110.603 31.2534 111.129 31.3827 111.56 31.6413C112.001 31.8999 112.335 32.2586 112.563 32.7174C112.791 33.1762 112.905 33.7059 112.905 34.3066C112.905 34.9406 112.783 35.4953 112.538 35.9708C112.302 36.438 111.952 36.805 111.487 37.0719C111.031 37.3306 110.464 37.4599 109.788 37.4599ZM109.788 36.7091C110.513 36.7091 111.072 36.4964 111.463 36.0709C111.862 35.6371 112.062 35.0615 112.062 34.3441C112.062 33.6434 111.866 33.0719 111.475 32.6298C111.092 32.1877 110.53 31.9666 109.788 31.9666C109.364 31.9666 108.981 32.0584 108.639 32.2419C108.297 32.4254 108.024 32.6924 107.82 33.0428C107.625 33.3931 107.527 33.8269 107.527 34.3441C107.527 34.7946 107.612 35.1992 107.783 35.5579C107.963 35.9166 108.219 36.2002 108.554 36.4088C108.888 36.609 109.299 36.7091 109.788 36.7091Z" fill="white"/>
<path d="M113.79 35.4578C113.79 35.049 113.904 34.6986 114.132 34.4067C114.36 34.1064 114.674 33.877 115.074 33.7185C115.481 33.5516 115.95 33.4682 116.479 33.4682C116.789 33.4682 117.111 33.4932 117.445 33.5433C117.779 33.5933 118.076 33.6684 118.337 33.7685V33.2179C118.337 32.6674 118.178 32.2294 117.86 31.9041C117.543 31.5787 117.103 31.4161 116.54 31.4161C116.198 31.4161 115.86 31.4828 115.526 31.6163C115.2 31.7414 114.858 31.9291 114.499 32.1794L114.181 31.5787C114.597 31.2868 115.004 31.0699 115.404 30.9281C115.803 30.7779 116.21 30.7028 116.626 30.7028C117.408 30.7028 118.028 30.9322 118.484 31.391C118.94 31.8498 119.168 32.4838 119.168 33.293V36.3087C119.168 36.4254 119.193 36.513 119.242 36.5714C119.291 36.6215 119.368 36.6507 119.474 36.659V37.3347C119.384 37.3431 119.307 37.3514 119.242 37.3597C119.177 37.3681 119.128 37.3681 119.095 37.3597C118.891 37.3514 118.736 37.2847 118.631 37.1595C118.525 37.0344 118.468 36.9009 118.459 36.7591L118.447 36.2836C118.162 36.659 117.791 36.951 117.335 37.1595C116.879 37.3597 116.414 37.4599 115.941 37.4599C115.534 37.4599 115.163 37.3723 114.829 37.1971C114.503 37.0136 114.246 36.7716 114.059 36.4713C113.88 36.1627 113.79 35.8248 113.79 35.4578ZM118.056 35.9583C118.146 35.8415 118.215 35.7289 118.264 35.6204C118.313 35.512 118.337 35.4161 118.337 35.3326V34.3816C118.06 34.2732 117.771 34.1898 117.469 34.1314C117.176 34.073 116.879 34.0438 116.577 34.0438C115.982 34.0438 115.501 34.1648 115.135 34.4067C114.768 34.6486 114.585 34.9781 114.585 35.3952C114.585 35.6371 114.646 35.8665 114.768 36.0834C114.89 36.292 115.069 36.4672 115.306 36.609C115.542 36.7424 115.819 36.8092 116.137 36.8092C116.536 36.8092 116.907 36.7299 117.249 36.5714C117.6 36.4129 117.869 36.2086 118.056 35.9583Z" fill="white"/>
<path d="M124.216 37.4599C123.686 37.4599 123.209 37.318 122.786 37.0344C122.37 36.7508 122.04 36.4004 121.795 35.9833V40H120.964V30.8154H121.71V32.0792C121.963 31.6705 122.301 31.341 122.724 31.0907C123.148 30.8321 123.6 30.7028 124.081 30.7028C124.521 30.7028 124.925 30.7987 125.291 30.9906C125.658 31.1741 125.976 31.4244 126.245 31.7414C126.514 32.0584 126.722 32.4213 126.868 32.83C127.023 33.2304 127.1 33.6476 127.1 34.0813C127.1 34.6903 126.978 35.2534 126.734 35.7706C126.497 36.2795 126.163 36.6882 125.731 36.9969C125.3 37.3055 124.794 37.4599 124.216 37.4599ZM123.983 36.7091C124.334 36.7091 124.648 36.6382 124.925 36.4964C125.202 36.3462 125.438 36.146 125.634 35.8957C125.837 35.6455 125.992 35.366 126.098 35.0574C126.204 34.7404 126.257 34.415 126.257 34.0813C126.257 33.731 126.196 33.3973 126.074 33.0803C125.96 32.7633 125.793 32.4838 125.573 32.2419C125.353 32 125.1 31.8081 124.815 31.6663C124.529 31.5245 124.22 31.4536 123.886 31.4536C123.674 31.4536 123.454 31.4953 123.226 31.5787C122.997 31.6621 122.777 31.7831 122.566 31.9416C122.362 32.0918 122.191 32.2628 122.052 32.4546C121.914 32.6465 121.828 32.8509 121.795 33.0678V35.0699C121.926 35.3785 122.101 35.658 122.321 35.9082C122.541 36.1502 122.794 36.3462 123.079 36.4964C123.372 36.6382 123.674 36.7091 123.983 36.7091Z" fill="white"/>
<path d="M131.43 37.4599C130.403 37.4599 129.625 37.1387 129.095 36.4964C128.574 35.8457 128.313 34.9489 128.313 33.806C128.313 32.9969 128.378 32.3128 128.508 31.7539C128.639 31.195 128.83 30.7362 129.083 30.3775C129.336 30.0104 129.645 29.7101 130.012 29.4765C130.387 29.243 130.815 29.0511 131.295 28.9009L133.972 28L134.046 28.7383L131.467 29.6017C130.978 29.7685 130.57 29.9812 130.244 30.2398C129.918 30.4984 129.662 30.8279 129.474 31.2284C129.295 31.6204 129.177 32.1335 129.12 32.7675C129.332 32.2836 129.657 31.9124 130.098 31.6538C130.538 31.3869 131.047 31.2534 131.625 31.2534C132.245 31.2534 132.77 31.3827 133.202 31.6413C133.642 31.8999 133.976 32.2586 134.205 32.7174C134.433 33.1762 134.547 33.7059 134.547 34.3066C134.547 34.9406 134.425 35.4953 134.18 35.9708C133.944 36.438 133.593 36.805 133.129 37.0719C132.673 37.3306 132.106 37.4599 131.43 37.4599ZM131.43 36.7091C132.155 36.7091 132.713 36.4964 133.105 36.0709C133.504 35.6371 133.703 35.0615 133.703 34.3441C133.703 33.6434 133.508 33.0719 133.117 32.6298C132.734 32.1877 132.171 31.9666 131.43 31.9666C131.006 31.9666 130.623 32.0584 130.281 32.2419C129.939 32.4254 129.666 32.6924 129.462 33.0428C129.266 33.3931 129.169 33.8269 129.169 34.3441C129.169 34.7946 129.254 35.1992 129.425 35.5579C129.605 35.9166 129.861 36.2002 130.195 36.4088C130.529 36.609 130.941 36.7091 131.43 36.7091Z" fill="white"/>
<path d="M138.696 37.4599C138.239 37.4599 137.815 37.3723 137.424 37.1971C137.033 37.0136 136.695 36.7675 136.41 36.4588C136.125 36.1418 135.9 35.7789 135.737 35.3702C135.583 34.9614 135.505 34.5235 135.505 34.0563C135.505 33.4473 135.64 32.8884 135.909 32.3796C136.186 31.8707 136.565 31.4661 137.045 31.1658C137.526 30.8571 138.072 30.7028 138.683 30.7028C139.311 30.7028 139.857 30.8571 140.321 31.1658C140.794 31.4745 141.165 31.8832 141.434 32.3921C141.703 32.8926 141.837 33.4432 141.837 34.0438C141.837 34.1105 141.837 34.1773 141.837 34.244C141.837 34.3024 141.833 34.3483 141.825 34.3816H136.373C136.414 34.8488 136.54 35.2659 136.752 35.633C136.972 35.9917 137.253 36.2795 137.595 36.4964C137.946 36.7049 138.325 36.8092 138.732 36.8092C139.148 36.8092 139.539 36.7007 139.906 36.4838C140.281 36.2669 140.541 35.9833 140.688 35.633L141.409 35.8332C141.279 36.1418 141.079 36.4213 140.81 36.6715C140.541 36.9218 140.223 37.1178 139.857 37.2596C139.498 37.3931 139.111 37.4599 138.696 37.4599ZM136.349 33.7685H141.055C141.022 33.293 140.896 32.8759 140.676 32.5172C140.464 32.1585 140.183 31.879 139.832 31.6788C139.49 31.4703 139.111 31.366 138.696 31.366C138.28 31.366 137.901 31.4703 137.559 31.6788C137.216 31.879 136.935 32.1627 136.715 32.5297C136.503 32.8884 136.381 33.3014 136.349 33.7685Z" fill="white"/>
<path d="M146.371 37.4599C145.841 37.4599 145.364 37.318 144.941 37.0344C144.525 36.7508 144.195 36.4004 143.951 35.9833V40H143.119V30.8154H143.865V32.0792C144.118 31.6705 144.456 31.341 144.88 31.0907C145.303 30.8321 145.756 30.7028 146.236 30.7028C146.676 30.7028 147.08 30.7987 147.447 30.9906C147.813 31.1741 148.131 31.4244 148.4 31.7414C148.669 32.0584 148.877 32.4213 149.023 32.83C149.178 33.2304 149.256 33.6476 149.256 34.0813C149.256 34.6903 149.133 35.2534 148.889 35.7706C148.653 36.2795 148.318 36.6882 147.887 36.9969C147.455 37.3055 146.949 37.4599 146.371 37.4599ZM146.139 36.7091C146.489 36.7091 146.803 36.6382 147.08 36.4964C147.357 36.3462 147.593 36.146 147.789 35.8957C147.993 35.6455 148.147 35.366 148.253 35.0574C148.359 34.7404 148.412 34.415 148.412 34.0813C148.412 33.731 148.351 33.3973 148.229 33.0803C148.115 32.7633 147.948 32.4838 147.728 32.2419C147.508 32 147.255 31.8081 146.97 31.6663C146.685 31.5245 146.375 31.4536 146.041 31.4536C145.829 31.4536 145.609 31.4953 145.381 31.5787C145.153 31.6621 144.933 31.7831 144.721 31.9416C144.517 32.0918 144.346 32.2628 144.207 32.4546C144.069 32.6465 143.983 32.8509 143.951 33.0678V35.0699C144.081 35.3785 144.256 35.658 144.476 35.9082C144.696 36.1502 144.949 36.3462 145.234 36.4964C145.527 36.6382 145.829 36.7091 146.139 36.7091Z" fill="white"/>
<path d="M150.651 37.3347V30.8154H151.483V36.5839H154.208V30.8154H155.052V36.5839H157.765V30.8154H158.597V37.3347H150.651Z" fill="white"/>
<path d="M163.13 37.4599C162.673 37.4599 162.25 37.3723 161.859 37.1971C161.476 37.0136 161.141 36.7675 160.856 36.4588C160.579 36.1418 160.363 35.7831 160.208 35.3827C160.054 34.9739 159.976 34.5443 159.976 34.0938C159.976 33.6267 160.054 33.1929 160.208 32.7925C160.363 32.3837 160.583 32.025 160.868 31.7164C161.154 31.3994 161.488 31.1533 161.871 30.9781C162.262 30.7946 162.686 30.7028 163.142 30.7028C163.598 30.7028 164.018 30.7946 164.401 30.9781C164.784 31.1533 165.118 31.3994 165.403 31.7164C165.689 32.025 165.909 32.3837 166.063 32.7925C166.218 33.1929 166.296 33.6267 166.296 34.0938C166.296 34.5443 166.218 34.9739 166.063 35.3827C165.909 35.7831 165.689 36.1418 165.403 36.4588C165.126 36.7675 164.792 37.0136 164.401 37.1971C164.018 37.3723 163.594 37.4599 163.13 37.4599ZM160.82 34.1064C160.82 34.5902 160.921 35.0323 161.125 35.4327C161.337 35.8248 161.618 36.1376 161.969 36.3712C162.319 36.5965 162.706 36.7091 163.13 36.7091C163.554 36.7091 163.941 36.5923 164.291 36.3587C164.641 36.1251 164.923 35.8081 165.134 35.4077C165.346 34.999 165.452 34.5568 165.452 34.0813C165.452 33.5975 165.346 33.1554 165.134 32.755C164.923 32.3545 164.641 32.0375 164.291 31.804C163.941 31.5704 163.554 31.4536 163.13 31.4536C162.706 31.4536 162.319 31.5746 161.969 31.8165C161.626 32.0584 161.349 32.3796 161.137 32.78C160.925 33.1721 160.82 33.6142 160.82 34.1064Z" fill="white"/>
<path d="M167.674 37.3347V30.8154H172.795V37.3347H171.964V31.5787H168.505V37.3347H167.674Z" fill="white"/>
<path d="M177.347 37.4599C176.89 37.4599 176.467 37.3723 176.076 37.1971C175.693 37.0136 175.358 36.7675 175.073 36.4588C174.796 36.1418 174.58 35.7831 174.425 35.3827C174.271 34.9739 174.193 34.5443 174.193 34.0938C174.193 33.6267 174.271 33.1929 174.425 32.7925C174.58 32.3837 174.8 32.025 175.085 31.7164C175.371 31.3994 175.705 31.1533 176.088 30.9781C176.479 30.7946 176.903 30.7028 177.359 30.7028C177.815 30.7028 178.235 30.7946 178.618 30.9781C179.001 31.1533 179.335 31.3994 179.62 31.7164C179.906 32.025 180.126 32.3837 180.28 32.7925C180.435 33.1929 180.513 33.6267 180.513 34.0938C180.513 34.5443 180.435 34.9739 180.28 35.3827C180.126 35.7831 179.906 36.1418 179.62 36.4588C179.343 36.7675 179.009 37.0136 178.618 37.1971C178.235 37.3723 177.811 37.4599 177.347 37.4599ZM175.037 34.1064C175.037 34.5902 175.138 35.0323 175.342 35.4327C175.554 35.8248 175.835 36.1376 176.186 36.3712C176.536 36.5965 176.923 36.7091 177.347 36.7091C177.771 36.7091 178.158 36.5923 178.508 36.3587C178.858 36.1251 179.14 35.8081 179.351 35.4077C179.563 34.999 179.669 34.5568 179.669 34.0813C179.669 33.5975 179.563 33.1554 179.351 32.755C179.14 32.3545 178.858 32.0375 178.508 31.804C178.158 31.5704 177.771 31.4536 177.347 31.4536C176.923 31.4536 176.536 31.5746 176.186 31.8165C175.843 32.0584 175.566 32.3796 175.354 32.78C175.142 33.1721 175.037 33.6142 175.037 34.1064Z" fill="white"/>
<path d="M181.891 37.3347V30.8154H185.069C185.427 30.8154 185.729 30.8947 185.973 31.0532C186.218 31.2033 186.401 31.3994 186.523 31.6413C186.654 31.8832 186.719 32.1418 186.719 32.4171C186.719 32.7675 186.637 33.0845 186.474 33.3681C186.311 33.6434 186.075 33.8519 185.765 33.9937C186.132 34.1022 186.43 34.2982 186.658 34.5819C186.886 34.8655 187 35.2075 187 35.6079C187 35.9583 186.914 36.2628 186.743 36.5214C186.58 36.78 186.352 36.9802 186.059 37.122C185.774 37.2638 185.444 37.3347 185.069 37.3347H181.891ZM182.685 36.7216H185.044C185.256 36.7216 185.448 36.6674 185.619 36.5589C185.798 36.4421 185.937 36.292 186.034 36.1084C186.14 35.9249 186.193 35.7331 186.193 35.5328C186.193 35.316 186.144 35.1199 186.047 34.9447C185.949 34.7612 185.818 34.6152 185.655 34.5068C185.492 34.3983 185.305 34.3441 185.093 34.3441H182.685V36.7216ZM182.685 33.756H184.849C185.061 33.756 185.248 33.6976 185.411 33.5808C185.574 33.464 185.7 33.3139 185.79 33.1303C185.88 32.9468 185.924 32.755 185.924 32.5547C185.924 32.2544 185.827 31.9917 185.631 31.7664C185.444 31.5412 185.199 31.4286 184.898 31.4286H182.685V33.756Z" fill="white"/>
</svg>
