<?xml version="1.0" encoding="utf-8"?><svg viewBox="0 0 32 32" xmlns="http://www.w3.org/2000/svg" xmlns:xlink="http://www.w3.org/1999/xlink"><style>:root>svg{display:none}:root>svg:target{display:block}</style><svg viewBox="0 0 15 8" id="arrow-sg-accordion" xmlns="http://www.w3.org/2000/svg"><path d="M1.854.646L1.5.293.793 1l.353.354.708-.708zM7.5 7l-.354.354a.5.5 0 00.708 0L7.5 7zm6.354-5.646L14.207 1 13.5.293l-.354.353.708.708zm-12.708 0l6 6 .708-.708-6-6-.708.708zm6.708 6l6-6-.708-.708-6 6 .708.708z"/></svg><svg viewBox="0 0 8 14" id="more-arrow" xmlns="http://www.w3.org/2000/svg"><path d="M1 1l6 6-6 6"/></svg><svg viewBox="0 0 24 24" id="phone" xmlns="http://www.w3.org/2000/svg"><path d="M24 18.954c0 .307-.057.708-.17 1.202-.114.495-.233.884-.358 1.168-.239.568-.932 1.17-2.08 1.807-1.068.58-2.125.869-3.17.869a6.76 6.76 0 01-.904-.06 7 7 0 01-.98-.213 14.642 14.642 0 01-.801-.247 68.2 68.2 0 01-.946-.35 38 38 0 00-.835-.306 15.444 15.444 0 01-2.983-1.415c-1.443-.898-2.943-2.125-4.5-3.682-1.557-1.556-2.784-3.056-3.682-4.5a15.436 15.436 0 01-1.415-2.983c-.034-.102-.136-.38-.307-.835a67.14 67.14 0 01-.35-.946 14.614 14.614 0 01-.246-.801 7.003 7.003 0 01-.213-.98A6.765 6.765 0 010 5.778c0-1.045.29-2.102.87-3.17C1.505 1.46 2.107.767 2.675.528 2.96.403 3.35.284 3.844.17 4.338.057 4.739 0 5.045 0c.16 0 .279.017.358.051.205.068.506.5.904 1.296.125.216.295.522.511.92.216.398.415.759.597 1.082.182.324.358.628.528.912.034.046.134.188.298.426.165.24.287.44.367.606.08.164.12.326.12.485 0 .228-.163.512-.487.853a8.31 8.31 0 01-1.056.937c-.381.284-.733.585-1.057.904-.324.318-.486.58-.486.784 0 .102.028.23.085.383.057.154.105.27.145.35.04.08.12.215.239.409.12.193.184.3.196.324.863 1.556 1.852 2.892 2.966 4.005 1.113 1.114 2.449 2.102 4.005 2.966.023.011.131.077.324.196.194.12.33.2.41.239.079.04.195.088.349.145.153.056.281.085.383.085.205 0 .466-.162.784-.486.319-.324.62-.676.904-1.057.284-.38.596-.733.937-1.057.341-.323.625-.485.853-.485.159 0 .32.04.485.119.165.08.367.202.605.367.24.164.381.264.427.298.284.17.588.346.912.528.323.182.684.38 1.082.597.398.216.704.386.92.511.796.398 1.228.699 1.296.904.034.08.051.198.051.357z"/></svg><svg viewBox="0 0 12 11" id="star" xmlns="http://www.w3.org/2000/svg"><path d="M6 0l1.347 4.146h4.36L8.18 6.708l1.347 4.146L6 8.292l-3.527 2.562L3.82 6.708.294 4.146h4.359L6 0z"/></svg><svg viewBox="0 0 32 32" id="telegram" xmlns="http://www.w3.org/2000/svg"><path d="M16 0C7.16 0 0 7.162 0 16c0 8.838 7.162 16 16 16 8.84 0 16-7.162 16-16 0-8.838-7.162-16-16-16zm7.859 10.961l-2.627 12.375c-.194.878-.716 1.09-1.445.677l-4-2.948-1.929 1.858c-.213.213-.393.394-.806.394l.284-4.072 7.412-6.697c.323-.284-.07-.445-.497-.16l-9.162 5.766-3.948-1.232c-.858-.27-.877-.858.18-1.27l15.427-5.95c.716-.258 1.342.175 1.11 1.258v.001z"/></svg><svg viewBox="0 0 32 32" id="vk" xmlns="http://www.w3.org/2000/svg"><path d="M20.912 0h-9.823C2.124 0-.002 2.125-.002 11.088v9.824C0 29.874 2.126 32 11.09 32h9.822c8.964 0 11.09-2.125 11.09-11.09v-9.823C32 2.126 29.855 0 20.91 0zm4.922 22.828H23.51c-.88 0-1.151-.698-2.735-2.302-1.375-1.334-1.983-1.51-2.323-1.51-.479 0-.614.135-.614.792v2.099c0 .563-.177.9-1.667.9-2.465 0-5.199-1.49-7.115-4.265-2.891-4.069-3.682-7.116-3.682-7.746 0-.338.135-.655.786-.655h2.328c.589 0 .813.27 1.042.9 1.15 3.323 3.067 6.235 3.858 6.235.293 0 .428-.136.428-.88v-3.433c-.09-1.582-.922-1.718-.922-2.28 0-.271.223-.543.582-.543h3.662c.495 0 .677.271.677.854v4.63c0 .5.224.678.358.678.293 0 .543-.177 1.084-.72 1.672-1.875 2.87-4.766 2.87-4.766.155-.339.427-.655 1.015-.655h2.328c.698 0 .855.359.698.859-.291 1.354-3.14 5.375-3.14 5.375-.245.405-.34.582 0 1.035.25.34 1.063 1.043 1.604 1.672.995 1.13 1.76 2.078 1.963 2.735.23.65-.108.99-.765.99h.003z"/></svg><svg viewBox="0 0 24 24" id="whatsapp" xmlns="http://www.w3.org/2000/svg"><path d="M17.496 14.383c-.3-.152-1.765-.867-2.04-.97-.273-.097-.472-.148-.671.153-.195.293-.77.964-.945 1.16-.176.196-.348.211-.645.078-.3-.152-1.261-.465-2.402-1.488-.89-.793-1.484-1.769-1.66-2.07-.176-.297-.02-.465.129-.613.136-.137.3-.344.453-.524.145-.18.191-.3.297-.495.097-.211.047-.376-.027-.524-.074-.149-.672-1.62-.922-2.207-.239-.582-.488-.508-.672-.508-.172-.016-.371-.016-.57-.016a1.13 1.13 0 00-.797.36c-.274.3-1.047 1.019-1.047 2.472 0 1.457 1.07 2.867 1.218 3.078.153.195 2.106 3.195 5.102 4.484.715.301 1.27.481 1.703.63.715.226 1.367.195 1.883.12.57-.093 1.765-.723 2.016-1.425.254-.707.254-1.293.18-1.426-.075-.136-.27-.21-.57-.343l-.013.074zm-5.434 7.367h-.015c-1.774 0-3.528-.48-5.06-1.38l-.359-.214-3.75.977 1.008-3.649-.242-.375a9.874 9.874 0 01-1.516-5.258c0-5.445 4.458-9.886 9.942-9.886a9.866 9.866 0 017.023 2.91 9.794 9.794 0 012.91 6.992c-.007 5.441-4.46 9.883-9.937 9.883h-.004zm8.457-18.3C18.238 1.245 15.238 0 12.047 0 5.463 0 .104 5.336.1 11.894c0 2.094.547 4.137 1.594 5.946L0 24l6.336-1.652a12.098 12.098 0 005.711 1.449h.004c6.586 0 11.945-5.337 11.949-11.899 0-3.175-1.238-6.164-3.496-8.41l.015-.039z"/></svg><svg viewBox="0 0 32 24" id="youtube" xmlns="http://www.w3.org/2000/svg"><path d="M31.327 4.27a4.005 4.005 0 00-2.787-2.78C26.045.821 16.015.821 16.015.821S6.005.806 3.483 1.49a4.005 4.005 0 00-2.78 2.78 41.574 41.574 0 00-.698 7.745 42.136 42.136 0 00.697 7.708 4.022 4.022 0 002.781 2.787c2.495.667 12.532.667 12.532.667s10.005 0 12.525-.667a4.023 4.023 0 002.787-2.787c.46-2.54.683-5.125.667-7.708.016-2.6-.203-5.188-.667-7.745zM12.811 16.802V7.207l8.35 4.808-8.35 4.787z"/></svg></svg>