<svg width="56" height="56" viewBox="0 0 56 56" fill="none" xmlns="http://www.w3.org/2000/svg">
<circle cx="28" cy="28" r="28" fill="#3E3E42"/>
<circle cx="28" cy="28" r="17.5" fill="white"/>
<path d="M13 28C13 19.7155 19.714 13 28 13C36.283 13 43 19.7155 43 28C43 36.2845 36.283 43 28 43C19.714 43 13 36.2845 13 28Z" fill="#FC3F1D"/>
<path d="M29.9452 21.92H28.5803C26.078 21.92 24.7618 23.1238 24.7618 24.8986C24.7618 26.9049 25.6718 27.845 27.5404 29.0502L29.084 30.0379L24.6481 36.3334H21.3333L25.3143 30.7016C23.0247 29.1428 21.7396 27.6289 21.7396 25.0684C21.7396 21.8582 24.0956 19.6667 28.5641 19.6667H33V36.3179H29.9452V21.92Z" fill="white"/>
</svg>
