<svg width="14" height="18" viewBox="0 0 14 18" fill="none" xmlns="http://www.w3.org/2000/svg">
<path d="M7 0C3.13401 0 0 3.06665 0 6.84956V16.2478C0 17.1275 0.728839 17.8407 1.62791 17.8407C2.93023 17.8407 5.53488 15.7699 7 15.7699C8.46512 15.7699 11.0698 18 12.5349 18C13.5116 18 14 17.1275 14 16.2478V6.84956C14 3.06665 10.866 0 7 0Z" fill="#F6F6F6"/>
<path d="M3.94653 13.0909V12.8246C4.12332 12.6852 4.27512 12.5611 4.40194 12.4523C4.53069 12.3416 4.63638 12.2404 4.719 12.1488C4.80355 12.0571 4.866 11.9703 4.90636 11.8882C4.94671 11.8042 4.96689 11.7173 4.96689 11.6276C4.96689 11.5111 4.92942 11.4185 4.85447 11.3498C4.78145 11.2792 4.67289 11.2439 4.52877 11.2439C4.43461 11.2439 4.3443 11.261 4.25783 11.2954C4.17136 11.3298 4.09449 11.3746 4.02724 11.43L3.99553 11.1608C4.06087 11.1131 4.14061 11.0768 4.23477 11.052C4.33085 11.0253 4.43749 11.0119 4.55471 11.0119C4.66616 11.0119 4.76416 11.0262 4.84871 11.0549C4.93326 11.0835 5.00436 11.1236 5.062 11.1751C5.11965 11.2267 5.16289 11.2887 5.19171 11.3613C5.22245 11.4338 5.23783 11.514 5.23783 11.6018C5.23783 11.7164 5.21381 11.8252 5.16577 11.9283C5.11965 12.0294 5.05336 12.1297 4.96689 12.2289C4.88042 12.3263 4.77473 12.4256 4.64983 12.5268C4.52493 12.6279 4.38465 12.7349 4.229 12.8475H5.25512V13.0909H3.94653Z" fill="#999999"/>
<path d="M6.20533 13.1195C6.10733 13.1195 6.01606 13.0995 5.93151 13.0594C5.84888 13.0174 5.77682 12.9534 5.71533 12.8675C5.65576 12.7797 5.60868 12.6699 5.57409 12.5382C5.54143 12.4046 5.52509 12.2461 5.52509 12.0629C5.52509 11.8796 5.54143 11.7221 5.57409 11.5904C5.60868 11.4567 5.65576 11.3479 5.71533 11.2639C5.77682 11.178 5.84888 11.115 5.93151 11.0749C6.01606 11.0329 6.10733 11.0119 6.20533 11.0119C6.30333 11.0119 6.39364 11.0319 6.47627 11.072C6.5589 11.1121 6.63 11.1751 6.68956 11.261C6.74913 11.345 6.79525 11.4529 6.82792 11.5846C6.86251 11.7164 6.8798 11.8739 6.8798 12.0571C6.8798 12.2404 6.86251 12.3989 6.82792 12.5325C6.79525 12.6642 6.74913 12.774 6.68956 12.8618C6.63 12.9496 6.5589 13.0145 6.47627 13.0565C6.39364 13.0985 6.30333 13.1195 6.20533 13.1195ZM6.20245 12.8933C6.26778 12.8933 6.32543 12.879 6.37539 12.8504C6.42535 12.8217 6.46762 12.7749 6.50221 12.71C6.5368 12.6451 6.56274 12.5602 6.58004 12.4552C6.59925 12.3483 6.60886 12.2184 6.60886 12.0657C6.60886 11.913 6.60021 11.7841 6.58292 11.6791C6.56562 11.5722 6.53968 11.4863 6.50509 11.4214C6.47051 11.3565 6.42823 11.3097 6.37827 11.2811C6.32831 11.2524 6.27066 11.2381 6.20533 11.2381C6.14 11.2381 6.08139 11.2524 6.02951 11.2811C5.97955 11.3097 5.93631 11.3565 5.8998 11.4214C5.86521 11.4863 5.83831 11.5722 5.81909 11.6791C5.8018 11.7841 5.79315 11.913 5.79315 12.0657C5.79315 12.2184 5.8018 12.3483 5.81909 12.4552C5.83831 12.5602 5.86521 12.6451 5.8998 12.71C5.93439 12.7749 5.97666 12.8217 6.02662 12.8504C6.07851 12.879 6.13711 12.8933 6.20245 12.8933Z" fill="#999999"/>
<path d="M7.14977 13.0909V12.8246C7.32656 12.6852 7.47836 12.5611 7.60518 12.4523C7.73393 12.3416 7.83962 12.2404 7.92224 12.1488C8.00679 12.0571 8.06924 11.9703 8.1096 11.8882C8.14995 11.8042 8.17013 11.7173 8.17013 11.6276C8.17013 11.5111 8.13266 11.4185 8.05771 11.3498C7.98469 11.2792 7.87613 11.2439 7.73201 11.2439C7.63785 11.2439 7.54754 11.261 7.46107 11.2954C7.3746 11.3298 7.29773 11.3746 7.23048 11.43L7.19877 11.1608C7.26411 11.1131 7.34385 11.0768 7.43801 11.052C7.53409 11.0253 7.64073 11.0119 7.75795 11.0119C7.8694 11.0119 7.9674 11.0262 8.05195 11.0549C8.1365 11.0835 8.2076 11.1236 8.26524 11.1751C8.32289 11.2267 8.36613 11.2887 8.39495 11.3613C8.42569 11.4338 8.44107 11.514 8.44107 11.6018C8.44107 11.7164 8.41705 11.8252 8.36901 11.9283C8.32289 12.0294 8.2566 12.1297 8.17013 12.2289C8.08366 12.3263 7.97797 12.4256 7.85307 12.5268C7.72817 12.6279 7.58789 12.7349 7.43224 12.8475H8.45836V13.0909H7.14977Z" fill="#999999"/>
<path d="M9.4201 13.0909V11.3641L8.84939 11.7965V11.5073L9.46333 11.0405H9.68527V13.0909H9.4201Z" fill="#999999"/>
<g clip-path="url(#clip0_424_716)">
<path d="M3.89185 6.13638C3.89185 4.43089 5.28306 3.0484 7 3.0484C8.71633 3.0484 10.1082 4.43089 10.1082 6.13638C10.1082 7.84187 8.71633 9.22435 7 9.22435C5.28306 9.22435 3.89185 7.84187 3.89185 6.13638V6.13638Z" fill="#FC3F1D"/>
<path d="M7.40762 4.80662H7.12227C6.59912 4.80662 6.32396 5.06987 6.32396 5.458C6.32396 5.89675 6.51419 6.10232 6.90485 6.36587L7.22757 6.58187L6.30018 7.95857H5.60718L6.43946 6.727C5.96078 6.38612 5.6921 6.05507 5.6921 5.49512C5.6921 4.79312 6.18468 4.31387 7.11887 4.31387H8.04627V7.95519H7.40762V4.80662Z" fill="white"/>
</g>
<defs>
<clipPath id="clip0_424_716">
<rect width="7.41176" height="7.36364" fill="white" transform="translate(3.29419 2.45456)"/>
</clipPath>
</defs>
</svg>
